<svg id="svg" version="1.1" xmlns="http://www.w3.org/2000/svg" width="400"
     height="200.91743119266056" viewBox="0, 0, 400,200.91743119266056">
    <g id="svgg">
        <path id="path0"
              d="M54.839 90.935 C 54.543 91.090,53.819 91.262,53.231 91.317 C 51.356 91.491,51.051 91.586,48.543 92.770 C 43.477 95.163,38.016 101.814,37.987 105.627 C 37.985 105.849,37.854 106.392,37.694 106.834 C 37.330 107.845,37.251 135.425,37.608 136.784 C 37.724 137.226,37.890 137.950,37.977 138.392 C 38.311 140.086,39.683 143.136,40.858 144.796 C 42.235 146.741,45.877 150.151,46.578 150.151 C 46.719 150.151,46.834 150.227,46.834 150.319 C 46.834 150.502,48.882 151.558,49.236 151.558 C 49.355 151.558,49.610 151.644,49.802 151.749 C 50.472 152.116,51.563 152.530,52.261 152.682 C 52.648 152.766,69.065 152.891,88.744 152.960 C 126.696 153.092,125.308 153.050,126.231 154.101 L 126.834 154.788 126.834 166.826 L 126.834 178.864 126.322 179.472 C 125.205 180.800,127.985 180.704,90.921 180.704 C 65.871 180.704,57.166 180.644,56.831 180.471 C 56.584 180.344,56.246 180.176,56.080 180.100 C 54.960 179.583,54.687 178.582,54.680 174.965 C 54.675 172.575,54.600 171.465,54.432 171.296 C 54.252 171.117,52.099 171.055,45.985 171.055 L 37.779 171.055 37.568 171.608 C 37.256 172.428,37.408 182.012,37.739 182.342 C 37.877 182.480,37.990 182.817,37.990 183.091 C 37.990 183.786,38.879 186.457,39.202 186.734 C 39.266 186.789,39.444 187.142,39.596 187.518 C 40.783 190.450,44.770 194.261,48.543 196.070 C 49.206 196.388,49.906 196.724,50.098 196.816 C 50.290 196.909,50.656 196.985,50.912 196.985 C 51.168 196.985,51.467 197.075,51.576 197.184 C 52.246 197.854,53.359 197.874,90.955 197.876 C 128.941 197.877,129.598 197.865,130.342 197.165 C 130.447 197.066,130.742 196.985,130.998 196.985 C 131.253 196.985,131.620 196.900,131.812 196.796 C 132.004 196.692,132.545 196.448,133.015 196.255 C 133.485 196.061,133.869 195.829,133.869 195.740 C 133.869 195.651,134.007 195.578,134.175 195.578 C 134.770 195.578,136.269 194.468,138.597 192.304 C 140.513 190.524,142.791 186.883,143.498 184.472 C 143.619 184.058,143.809 183.418,143.920 183.051 C 144.030 182.684,144.121 181.880,144.121 181.265 C 144.121 180.650,144.256 179.887,144.421 179.571 C 144.678 179.079,144.721 177.231,144.721 166.834 C 144.721 156.438,144.678 154.590,144.421 154.098 C 144.256 153.781,144.121 153.019,144.121 152.403 C 144.121 151.788,144.038 151.007,143.938 150.668 C 143.837 150.328,143.647 149.688,143.516 149.246 C 142.058 144.345,136.918 138.725,132.563 137.272 C 132.121 137.124,131.673 136.931,131.568 136.843 C 131.463 136.755,131.168 136.683,130.912 136.683 C 130.656 136.683,130.290 136.596,130.098 136.489 C 128.635 135.674,128.851 135.678,92.034 135.678 C 52.874 135.678,56.143 135.803,55.175 134.270 L 54.673 133.475 54.673 122.026 C 54.673 109.361,54.635 109.744,55.983 108.861 C 56.587 108.465,124.816 108.364,125.680 108.758 C 126.621 109.187,126.727 109.620,126.834 113.467 C 126.889 115.457,127.008 117.198,127.097 117.337 C 127.379 117.771,143.983 117.694,144.347 117.256 C 144.774 116.743,144.856 110.197,144.447 109.304 C 144.280 108.940,144.098 108.101,144.042 107.437 C 143.886 105.593,143.695 104.532,143.496 104.409 C 143.397 104.348,143.317 104.137,143.317 103.940 C 143.317 103.495,141.695 100.313,140.849 99.095 C 139.349 96.939,134.810 93.065,133.784 93.065 C 133.610 93.065,133.467 92.995,133.467 92.908 C 133.467 92.651,130.977 91.666,130.313 91.661 C 130.071 91.660,129.817 91.568,129.749 91.457 C 129.680 91.347,129.150 91.256,128.571 91.256 C 127.992 91.256,127.405 91.143,127.266 91.005 C 126.870 90.608,55.593 90.540,54.839 90.935 M326.346 116.698 C 325.801 117.243,325.875 145.209,326.426 146.717 C 326.930 148.096,327.760 149.295,328.460 149.658 C 328.761 149.813,329.129 150.061,329.277 150.208 C 330.244 151.167,341.528 151.710,342.398 150.840 C 342.801 150.437,342.865 145.559,342.472 145.166 C 342.299 144.992,340.929 144.925,337.579 144.925 C 331.587 144.925,332.261 145.863,332.261 137.522 L 332.261 130.854 337.172 130.854 C 343.201 130.854,342.714 131.137,342.714 127.631 C 342.714 124.367,343.191 124.623,337.099 124.623 L 332.261 124.623 332.261 120.744 C 332.261 117.994,332.191 116.794,332.020 116.623 C 331.627 116.230,326.749 116.294,326.346 116.698 M171.809 124.762 C 171.616 124.812,171.457 124.937,171.457 125.040 C 171.457 125.142,171.289 125.226,171.084 125.226 C 170.546 125.226,169.009 126.657,168.571 127.566 C 168.365 127.993,168.116 128.499,168.018 128.691 C 167.787 129.142,167.783 146.675,168.014 146.818 C 168.111 146.878,168.240 147.179,168.302 147.489 C 168.515 148.556,170.512 150.219,172.362 150.868 C 173.350 151.215,189.438 151.296,189.648 150.955 C 189.717 150.844,189.987 150.754,190.249 150.754 C 190.511 150.754,190.861 150.618,191.027 150.452 C 191.192 150.286,191.412 150.151,191.515 150.151 C 192.256 150.151,193.824 148.136,194.343 146.518 C 194.626 145.636,194.668 129.622,194.389 129.093 C 194.287 128.901,194.090 128.437,193.951 128.063 C 193.647 127.246,191.730 125.226,191.259 125.226 C 191.076 125.226,190.790 125.090,190.625 124.925 C 190.333 124.633,172.879 124.482,171.809 124.762 M199.526 125.199 C 198.399 125.844,197.186 126.967,197.186 127.365 C 197.186 127.515,197.113 127.638,197.024 127.638 C 196.126 127.638,195.761 135.281,196.570 137.110 C 197.339 138.847,199.260 140.503,200.505 140.503 C 200.761 140.503,201.009 140.616,201.055 140.754 C 201.120 140.948,202.933 141.018,209.012 141.062 L 216.884 141.119 216.884 142.781 C 216.884 145.097,217.466 144.925,209.633 144.925 C 202.319 144.925,202.508 144.953,202.380 143.819 L 202.312 143.216 199.296 143.216 L 196.281 143.216 196.223 144.739 C 196.138 146.975,197.898 150.151,199.223 150.151 C 199.429 150.151,199.598 150.231,199.598 150.329 C 199.598 150.426,200.045 150.653,200.591 150.831 C 203.062 151.639,219.698 151.186,219.698 150.310 C 219.698 150.223,219.823 150.151,219.976 150.151 C 222.376 150.151,224.222 142.183,222.641 138.649 C 221.024 135.038,220.516 134.874,210.875 134.874 C 201.643 134.874,202.412 135.079,202.412 132.621 L 202.412 130.849 209.598 130.902 L 216.784 130.955 216.846 131.708 C 216.936 132.788,217.295 132.908,220.225 132.830 C 223.119 132.754,223.108 132.760,223.112 130.961 C 223.119 128.593,221.799 126.380,219.723 125.276 L 218.493 124.623 209.498 124.632 L 200.503 124.640 199.526 125.199 M241.938 124.925 C 241.772 125.090,241.545 125.226,241.433 125.226 C 240.627 125.226,239.137 126.758,238.324 128.423 C 237.955 129.178,237.815 136.351,238.165 136.567 C 238.261 136.626,238.396 136.953,238.463 137.292 C 238.602 137.984,240.583 140.101,241.092 140.101 C 241.265 140.101,241.407 140.191,241.407 140.302 C 241.407 140.412,241.716 140.503,242.094 140.503 C 242.472 140.503,242.818 140.616,242.864 140.754 C 242.929 140.948,244.722 141.018,250.720 141.062 L 258.492 141.119 258.492 142.704 C 258.492 145.164,259.262 144.925,251.339 144.925 L 244.430 144.925 244.307 144.372 C 244.001 142.997,244.277 143.100,241.040 143.161 L 238.090 143.216 238.031 144.793 C 237.999 145.660,238.054 146.474,238.154 146.602 C 238.255 146.730,238.393 147.072,238.462 147.363 C 238.746 148.553,241.306 150.754,242.406 150.754 C 242.618 150.754,242.846 150.844,242.915 150.955 C 243.096 151.248,259.302 151.226,260.041 150.932 C 262.289 150.037,263.453 149.115,264.037 147.769 C 264.212 147.365,264.457 146.854,264.582 146.633 C 265.062 145.780,265.016 140.688,264.513 139.065 C 264.015 137.456,262.186 135.276,261.334 135.276 C 261.111 135.276,260.872 135.186,260.804 135.075 C 260.725 134.947,257.800 134.874,252.692 134.874 C 243.451 134.874,244.221 135.079,244.221 132.621 L 244.221 130.849 251.294 130.902 L 258.367 130.955 258.543 131.658 C 258.817 132.756,259.103 132.864,261.709 132.864 C 264.707 132.864,264.824 132.790,264.824 130.901 C 264.824 130.135,264.720 129.291,264.593 129.025 C 264.466 128.760,264.257 128.262,264.129 127.920 C 263.831 127.123,262.479 125.810,261.268 125.143 L 260.325 124.623 251.282 124.623 C 243.512 124.623,242.197 124.666,241.938 124.925 M267.653 124.939 C 267.401 125.190,267.337 125.739,267.337 127.630 C 267.337 131.221,266.122 130.848,277.990 130.906 L 287.940 130.955 287.997 132.915 L 288.055 134.874 277.937 134.874 C 270.336 134.874,267.759 134.934,267.578 135.116 C 267.120 135.573,267.251 145.399,267.733 146.717 C 268.545 148.938,269.688 150.035,272.060 150.868 C 273.505 151.375,293.788 151.282,294.063 150.767 C 294.199 150.513,294.271 146.680,294.271 139.710 L 294.271 129.042 293.719 128.018 C 293.047 126.775,292.221 125.940,290.926 125.199 L 289.950 124.640 278.959 124.632 C 269.228 124.624,267.932 124.659,267.653 124.939 M296.597 124.939 C 296.317 125.219,296.281 126.671,296.281 137.889 C 296.281 149.107,296.317 150.559,296.597 150.840 C 297.120 151.362,302.019 151.300,302.304 150.767 C 302.440 150.515,302.513 147.036,302.513 140.857 C 302.513 133.720,302.573 131.276,302.754 131.095 C 302.932 130.917,304.793 130.854,309.882 130.854 L 316.769 130.854 316.827 140.720 C 316.882 150.218,316.899 150.596,317.275 150.871 C 317.784 151.243,322.408 151.280,322.774 150.915 C 323.242 150.446,323.106 128.906,322.629 127.927 C 322.149 126.943,320.997 125.826,319.760 125.143 L 318.817 124.623 307.865 124.623 C 298.177 124.623,296.877 124.660,296.597 124.939 M347.688 124.759 C 347.495 124.811,347.337 124.937,347.337 125.040 C 347.337 125.142,347.170 125.226,346.965 125.226 C 346.491 125.226,344.471 127.347,344.189 128.141 C 344.072 128.472,343.873 129.067,343.747 129.462 C 343.432 130.447,343.429 145.115,343.743 146.116 C 344.599 148.847,345.520 149.799,348.401 150.934 C 349.337 151.303,364.897 151.230,365.982 150.851 C 367.856 150.199,369.048 149.196,369.884 147.570 L 370.352 146.661 370.352 137.702 C 370.352 127.312,370.239 126.830,367.488 125.412 C 367.184 125.255,366.870 125.036,366.791 124.925 C 366.647 124.723,348.411 124.564,347.688 124.759 M375.477 125.143 C 372.868 126.592,371.858 128.698,371.861 132.678 C 371.865 137.101,373.772 140.503,376.247 140.503 C 376.443 140.503,376.716 140.616,376.854 140.754 C 377.044 140.944,378.986 141.019,384.841 141.064 L 392.578 141.123 392.520 142.974 L 392.462 144.824 385.647 144.877 C 378.179 144.935,378.189 144.937,378.052 143.748 L 377.990 143.216 375.178 143.160 C 371.983 143.096,371.855 143.152,371.865 144.611 C 371.883 147.268,373.858 149.921,376.501 150.842 C 378.792 151.639,395.578 151.172,395.578 150.310 C 395.578 150.223,395.704 150.151,395.858 150.151 C 396.390 150.151,397.875 148.499,398.442 147.277 C 398.738 146.640,398.794 145.920,398.792 142.757 L 398.790 138.995 398.203 137.990 C 397.357 136.544,396.787 135.965,395.634 135.386 L 394.615 134.874 386.685 134.874 C 377.435 134.874,378.090 135.037,378.090 132.738 C 378.090 130.722,377.564 130.854,385.568 130.854 L 392.563 130.854 392.563 131.457 C 392.563 132.641,393.072 132.864,395.765 132.864 C 398.762 132.864,398.794 132.841,398.794 130.646 C 398.794 129.186,398.521 128.123,397.943 127.337 C 397.240 126.381,396.681 125.805,396.222 125.565 C 395.923 125.409,395.407 125.134,395.075 124.953 C 394.543 124.664,393.417 124.626,385.427 124.633 L 376.382 124.640 375.477 125.143 M188.297 137.487 C 188.328 141.080,188.304 144.225,188.243 144.475 L 188.132 144.930 181.151 144.877 L 174.171 144.824 174.118 137.837 L 174.065 130.849 181.153 130.902 L 188.241 130.955 188.297 137.487 M363.972 137.839 L 363.920 144.824 357.110 144.877 C 350.803 144.926,350.280 144.904,350.031 144.576 C 349.660 144.088,349.622 131.463,349.990 131.095 C 350.168 130.917,352.032 130.854,357.128 130.854 L 364.025 130.854 363.972 137.839 M288.040 143.015 L 288.040 144.925 281.172 144.925 C 273.032 144.925,273.568 145.083,273.568 142.682 L 273.568 141.106 280.804 141.106 L 288.040 141.106 288.040 143.015 M154.573 160.539 C 153.998 160.777,153.976 161.157,153.973 171.119 C 153.969 182.823,153.792 181.910,156.073 181.910 C 158.552 181.910,158.392 182.348,158.392 175.564 L 158.392 169.849 162.412 169.849 L 166.432 169.849 166.432 175.638 C 166.432 182.365,166.277 181.910,168.569 181.910 C 171.025 181.910,170.854 182.438,170.854 174.852 C 170.854 165.402,170.537 165.026,162.563 165.025 L 158.392 165.025 158.389 163.065 C 158.387 161.987,158.301 160.971,158.196 160.806 C 157.998 160.492,155.188 160.284,154.573 160.539 M224.322 160.539 C 223.808 160.751,223.725 161.053,223.722 162.724 C 223.718 164.772,223.772 164.824,225.930 164.824 C 227.006 164.824,227.749 164.733,227.899 164.583 C 228.189 164.294,228.226 161.250,227.945 160.806 C 227.746 160.492,224.936 160.284,224.322 160.539 M308.342 160.651 L 307.839 160.916 307.787 169.731 C 307.758 174.580,307.813 178.648,307.910 178.771 C 308.006 178.894,308.141 179.230,308.209 179.516 C 308.630 181.283,310.218 181.910,314.277 181.910 C 317.797 181.910,318.387 181.786,318.400 181.048 C 318.406 180.681,318.458 180.718,318.692 181.256 L 318.976 181.910 320.679 181.910 C 323.178 181.910,323.015 182.353,323.015 175.564 L 323.015 169.849 327.035 169.849 L 331.055 169.849 331.055 175.638 C 331.055 179.873,331.120 181.492,331.296 181.668 C 331.770 182.142,334.802 181.981,335.164 181.463 C 335.539 180.928,335.644 168.569,335.276 168.342 C 335.166 168.273,335.075 168.037,335.075 167.816 C 335.075 167.595,334.690 167.035,334.220 166.571 C 332.860 165.232,331.901 165.025,327.068 165.025 L 323.015 165.025 323.015 163.040 C 323.015 160.554,322.967 160.503,320.665 160.503 C 318.556 160.503,318.603 160.429,318.583 163.719 C 318.573 165.501,318.509 166.187,318.385 165.876 C 318.108 165.188,317.396 165.025,314.660 165.025 L 312.161 165.025 312.158 163.065 C 312.156 161.987,312.070 160.972,311.967 160.808 C 311.710 160.402,309.035 160.286,308.342 160.651 M366.496 160.604 C 365.767 160.898,365.580 163.738,366.238 164.530 C 366.646 165.023,369.972 164.944,370.244 164.435 C 370.634 163.706,370.504 161.257,370.050 160.804 C 369.614 160.368,367.393 160.243,366.496 160.604 M371.910 160.599 L 371.457 160.791 371.457 169.851 C 371.457 182.080,371.365 181.910,377.968 181.910 C 381.986 181.910,381.742 182.028,381.900 180.004 L 382.010 178.593 382.387 179.397 C 383.469 181.707,384.061 181.910,389.741 181.910 L 394.372 181.910 394.372 182.714 L 394.372 183.518 389.670 183.518 C 384.261 183.518,384.724 183.311,384.724 185.731 C 384.724 188.099,384.367 187.969,390.711 187.899 C 394.758 187.854,396.067 187.779,396.131 187.588 C 396.177 187.450,396.365 187.334,396.549 187.331 C 396.991 187.323,398.085 186.315,398.480 185.551 C 399.017 184.513,398.947 165.925,398.405 165.635 C 397.913 165.372,395.569 165.364,394.887 165.623 L 394.372 165.819 394.372 171.653 L 394.372 177.487 390.352 177.487 L 386.332 177.487 386.332 171.665 C 386.332 165.938,386.325 165.840,385.905 165.615 C 385.333 165.309,382.272 165.445,382.160 165.782 C 382.045 166.128,381.709 166.093,381.709 165.736 C 381.709 165.190,380.942 165.025,378.405 165.025 L 375.879 165.025 375.879 163.040 C 375.879 161.445,375.815 161.000,375.550 160.781 C 375.154 160.452,372.560 160.323,371.910 160.599 M173.972 165.405 C 172.882 165.755,171.457 167.027,171.457 167.651 C 171.457 167.852,171.367 168.072,171.256 168.141 C 170.880 168.373,170.997 178.712,171.386 179.517 C 172.467 181.757,172.977 181.910,179.397 181.910 C 185.464 181.910,185.646 181.870,187.014 180.272 L 187.739 179.425 187.739 173.739 C 187.739 166.689,187.615 166.355,184.638 165.357 C 183.240 164.889,175.470 164.923,173.972 165.405 M189.123 165.148 C 188.426 165.356,188.342 166.125,188.342 172.282 C 188.342 181.851,188.403 181.919,196.927 181.893 C 203.065 181.875,203.278 181.826,204.564 180.135 L 205.226 179.265 205.226 172.458 C 205.226 164.512,205.382 165.025,202.970 165.025 C 200.710 165.025,200.804 164.739,200.804 171.658 L 200.804 177.487 196.784 177.487 L 192.764 177.487 192.761 171.608 C 192.759 168.314,192.675 165.598,192.570 165.432 C 192.382 165.135,189.864 164.928,189.123 165.148 M208.964 165.391 C 207.822 165.770,206.669 166.806,206.174 167.896 C 205.799 168.723,205.668 172.540,206.008 172.750 C 206.106 172.811,206.247 173.099,206.320 173.391 C 206.491 174.074,207.905 175.477,208.423 175.477 C 208.641 175.477,208.876 175.568,208.945 175.678 C 209.022 175.803,210.823 175.879,213.680 175.879 L 218.291 175.879 218.291 176.683 L 218.291 177.487 214.271 177.487 C 210.435 177.487,210.251 177.470,210.251 177.100 C 210.251 175.828,206.616 175.577,206.055 176.810 C 205.402 178.243,206.512 180.625,208.245 181.509 C 209.332 182.064,219.293 182.125,220.362 181.584 C 221.316 181.101,222.480 179.776,222.624 179.010 C 222.844 177.834,222.643 173.611,222.362 173.517 C 222.224 173.471,222.111 173.321,222.111 173.184 C 222.111 172.886,221.270 172.060,220.966 172.060 C 220.849 172.060,220.641 171.926,220.505 171.762 C 220.301 171.516,219.390 171.455,215.305 171.410 L 210.352 171.357 210.289 170.603 L 210.227 169.849 214.259 169.849 C 216.607 169.849,218.291 169.927,218.291 170.036 C 218.291 170.913,222.060 171.297,222.505 170.465 C 223.140 169.280,222.530 167.118,221.268 166.080 C 219.980 165.020,211.510 164.546,208.964 165.391 M224.165 165.338 L 223.719 165.651 223.719 173.391 C 223.719 178.343,223.794 181.272,223.927 181.521 C 224.207 182.044,227.316 182.102,227.825 181.594 C 228.374 181.044,228.294 165.982,227.739 165.427 C 227.220 164.908,224.863 164.849,224.165 165.338 M229.190 165.338 L 228.744 165.651 228.744 173.391 C 228.744 182.547,228.586 181.910,230.847 181.910 C 233.326 181.910,233.166 182.348,233.166 175.564 L 233.166 169.849 237.186 169.849 L 241.206 169.849 241.206 175.638 C 241.206 182.365,241.051 181.910,243.342 181.910 C 245.797 181.910,245.628 182.426,245.628 174.941 C 245.628 167.092,245.356 166.300,242.339 165.377 C 240.711 164.878,229.892 164.847,229.190 165.338 M249.248 165.383 C 248.751 165.555,248.224 165.818,248.076 165.965 C 247.929 166.113,247.645 166.321,247.447 166.427 C 246.415 166.979,246.231 168.068,246.231 173.628 C 246.231 181.704,246.421 181.910,253.900 181.910 L 258.492 181.910 258.492 182.714 L 258.492 183.518 253.876 183.518 C 248.467 183.518,248.753 183.383,248.879 185.874 C 248.989 188.065,248.696 187.969,255.059 187.898 C 259.085 187.853,260.389 187.778,260.452 187.588 C 260.498 187.450,260.692 187.337,260.884 187.337 C 261.255 187.337,261.992 186.614,262.627 185.628 C 262.992 185.061,263.019 184.531,263.074 176.821 L 263.133 168.618 262.596 167.520 C 261.564 165.412,260.741 165.162,254.673 165.108 C 251.015 165.076,249.978 165.129,249.248 165.383 M273.144 165.158 C 272.632 165.295,272.362 166.139,272.362 167.603 C 272.362 169.979,271.982 169.849,278.906 169.849 L 284.824 169.849 284.824 170.653 L 284.824 171.457 278.909 171.457 C 271.663 171.457,272.362 171.059,272.362 175.185 C 272.362 179.276,272.863 180.516,274.954 181.597 C 275.464 181.861,276.588 181.910,282.206 181.910 L 288.854 181.910 289.050 181.394 C 289.418 180.425,289.300 168.315,288.914 167.502 C 288.478 166.582,287.502 165.825,286.190 165.390 C 285.181 165.055,274.255 164.861,273.144 165.158 M291.033 165.158 C 290.336 165.345,290.251 166.122,290.251 172.347 C 290.251 181.873,290.284 181.910,298.796 181.910 C 307.254 181.910,307.195 181.980,307.098 171.994 C 307.024 164.473,307.185 164.949,304.754 165.065 C 302.606 165.167,302.714 164.819,302.714 171.697 L 302.714 177.487 298.693 177.487 L 294.673 177.487 294.673 171.572 C 294.673 164.654,294.782 165.012,292.699 165.048 C 291.961 165.061,291.211 165.111,291.033 165.158 M338.671 165.402 C 335.818 166.408,335.678 166.785,335.678 173.510 C 335.678 179.959,335.828 180.475,338.030 181.585 C 338.987 182.068,349.052 182.068,350.010 181.586 C 350.783 181.196,351.960 180.113,351.960 179.790 C 351.960 179.663,352.101 179.276,352.274 178.929 C 352.820 177.836,352.602 168.633,352.003 167.498 C 351.458 166.464,350.581 165.791,349.208 165.356 C 347.722 164.884,340.044 164.918,338.671 165.402 M355.879 165.395 C 355.255 165.600,354.550 166.048,354.020 166.576 L 353.166 167.427 353.166 174.427 C 353.166 182.488,353.008 181.910,355.202 181.910 C 357.525 181.910,357.387 182.311,357.387 175.571 L 357.387 169.865 361.597 169.807 L 365.808 169.749 365.869 175.497 C 365.942 182.363,365.772 181.910,368.271 181.910 C 370.631 181.910,370.479 182.529,370.409 173.219 C 370.342 164.263,370.549 164.952,367.955 165.064 C 366.992 165.105,366.333 165.223,366.286 165.362 C 366.231 165.529,366.058 165.514,365.667 165.310 C 364.837 164.877,357.253 164.942,355.879 165.395 M318.590 173.618 C 318.588 177.759,318.544 178.509,318.333 178.090 C 318.082 177.593,318.050 177.587,315.120 177.532 L 312.161 177.477 312.161 173.663 L 312.161 169.849 314.888 169.849 C 317.735 169.849,318.392 169.697,318.392 169.038 C 318.392 168.821,318.437 168.643,318.492 168.643 C 318.548 168.643,318.592 170.882,318.590 173.618 M381.903 173.618 C 381.899 176.823,381.836 178.086,381.692 177.839 C 381.513 177.531,381.142 177.487,378.683 177.487 L 375.879 177.487 375.879 173.668 L 375.879 169.849 378.712 169.849 C 381.376 169.849,381.551 169.825,381.650 169.447 C 381.873 168.595,381.909 169.191,381.903 173.618 M183.317 173.668 L 183.317 177.487 179.397 177.487 L 175.477 177.487 175.477 173.668 L 175.477 169.849 179.397 169.849 L 183.317 169.849 183.317 173.668 M258.492 173.668 L 258.492 177.487 254.573 177.487 L 250.653 177.487 250.653 173.668 L 250.653 169.849 254.573 169.849 L 258.492 169.849 258.492 173.668 M347.940 173.668 L 347.940 177.487 344.020 177.487 L 340.101 177.487 340.101 173.668 L 340.101 169.849 344.020 169.849 L 347.940 169.849 347.940 173.668 M284.824 176.688 L 284.824 177.496 280.854 177.441 L 276.884 177.387 276.822 176.633 L 276.760 175.879 280.792 175.879 L 284.824 175.879 284.824 176.688 "
              stroke="none" fill="#000000" fill-rule="evenodd"></path>
        <path id="path1"
              d="M80.061 14.623 C 74.483 20.234,62.409 32.377,53.229 41.608 C 44.050 50.839,32.951 62.010,28.567 66.432 C 24.182 70.854,16.459 78.639,11.403 83.732 C 2.810 92.388,2.211 93.037,2.211 93.692 C 2.211 94.774,14.927 107.538,16.004 107.538 C 16.651 107.538,17.056 107.184,21.267 102.941 C 32.289 91.835,35.520 88.588,37.933 86.194 C 39.346 84.791,48.460 75.611,58.185 65.792 C 86.968 36.734,90.535 33.160,90.707 33.217 C 90.798 33.247,93.694 36.077,97.144 39.506 C 100.594 42.934,107.623 49.893,112.764 54.969 C 123.192 65.268,134.576 76.571,136.909 78.944 C 137.752 79.801,142.162 84.207,146.708 88.735 L 154.975 96.967 154.975 121.840 L 154.975 146.712 155.444 147.594 C 156.880 150.296,158.776 151.156,163.297 151.156 C 166.828 151.156,166.634 151.345,166.630 147.903 C 166.626 144.748,166.813 144.949,163.811 144.881 L 161.307 144.824 161.255 123.984 L 161.204 103.144 163.298 105.240 C 166.052 107.997,165.722 108.041,169.291 104.451 C 181.247 92.427,180.568 93.263,179.331 92.095 C 179.018 91.800,174.812 87.629,169.984 82.828 L 161.206 74.098 161.206 57.538 C 161.206 46.508,161.137 40.849,160.998 40.590 C 160.777 40.177,155.827 39.985,155.228 40.366 C 155.033 40.489,154.966 43.569,154.926 54.217 L 154.874 67.909 132.936 46.065 C 94.166 7.462,91.077 4.422,90.624 4.422 C 90.333 4.422,87.038 7.605,80.061 14.623 "
              stroke="none" fill="#64642c" fill-rule="evenodd"></path>
        <path id="path2" d="" stroke="none" fill="#100b0c8" fill-rule="evenodd"></path>
        <path id="path3" d="" stroke="none" fill="#100b0c8" fill-rule="evenodd"></path>
        <path id="path4" d="" stroke="none" fill="#100b0c8" fill-rule="evenodd"></path>
        <path id="path5" d="" stroke="none" fill="#100b0c8" fill-rule="evenodd"></path>
        <path id="path6" d="" stroke="none" fill="#100b0c8" fill-rule="evenodd"></path>
        <path id="path7" d="" stroke="none" fill="#100b0c8" fill-rule="evenodd"></path>
        <path id="path8" d="" stroke="none" fill="#100b0c8" fill-rule="evenodd"></path>
    </g>
</svg>